<?xml version="1.0" encoding="iso-8859-1"?>
<!-- Generator: Adobe Illustrator 19.0.0, SVG Export Plug-In . SVG Version: 6.00 Build 0)  -->
<svg version="1.1" id="Layer_1" xmlns="http://www.w3.org/2000/svg" xmlns:xlink="http://www.w3.org/1999/xlink" x="0px" y="0px"
	 viewBox="0 0 512 512" style="enable-background:new 0 0 512 512;" xml:space="preserve">
<polygon style="fill:#CCCCCC;" points="303.995,473.732 207.993,473.732 216.031,440.249 223.797,407.946 288.203,407.946 
	295.956,440.249 "/>
<polygon style="fill:#999999;" points="295.956,440.249 216.031,440.249 223.797,407.946 249.925,375.918 288.203,407.946 "/>
<path style="fill:#CCCCCC;" d="M512,62.829v311.238c0,18.711-15.17,33.881-33.881,33.881H33.881C15.17,407.946,0,392.778,0,374.067
	V62.829c0-18.711,15.17-33.881,33.881-33.881h444.239C496.83,28.947,512,44.118,512,62.829z"/>
<path style="fill:#E6E6E6;" d="M512,62.829v311.238c0,18.711-15.17,33.881-33.881,33.881H205.943L312.207,28.948h165.912
	C496.83,28.947,512,44.118,512,62.829z"/>
<rect y="75.427" style="fill:#9BD7F4;" width="512" height="286.042"/>
<polygon style="fill:#C8EDFC;" points="512,75.427 512,361.469 218.976,361.469 299.174,75.427 "/>
<rect x="177.715" y="464.415" style="fill:#E6E6E6;" width="156.557" height="18.636"/>
<g>
	<rect y="69.836" style="fill:#B3B3B3;" width="512" height="11.182"/>
	<rect y="356.835" style="fill:#B3B3B3;" width="512" height="11.182"/>
</g>
<path style="fill:#E6E6E6;" d="M416.359,239.65c0,39.745-32.228,71.973-71.986,71.973h-191.73
	c-31.483,0-57.002-25.519-57.002-57.002s25.519-57.002,57.002-57.002c4.833,0,9.529,0.609,14.014,1.752
	c8.809-42.317,46.292-74.098,91.218-74.098c9.119,0,17.94,1.317,26.265,3.765c21.717,6.374,40.155,20.463,52.132,39.099
	c2.659-0.298,5.367-0.472,8.101-0.472C384.13,167.664,416.359,199.892,416.359,239.65z"/>
<path style="fill:#FFFFFF;" d="M416.359,239.65c0,39.745-32.228,71.973-71.986,71.973h-111.42l51.188-182.586
	c21.717,6.374,40.155,20.463,52.132,39.099c2.659-0.298,5.367-0.472,8.101-0.472C384.13,167.664,416.359,199.892,416.359,239.65z"/>
<polygon style="fill:#4D4D4D;" points="287.52,251.701 256,293.596 242.893,276.176 224.48,251.701 246.409,251.701 
	246.409,173.404 265.591,173.404 265.591,251.701 "/>
<polygon style="fill:#808080;" points="287.52,251.701 256,293.596 242.893,276.176 265.591,195.209 265.591,251.701 "/>
<g>
</g>
<g>
</g>
<g>
</g>
<g>
</g>
<g>
</g>
<g>
</g>
<g>
</g>
<g>
</g>
<g>
</g>
<g>
</g>
<g>
</g>
<g>
</g>
<g>
</g>
<g>
</g>
<g>
</g>
</svg>
